<svg xmlns="http://www.w3.org/2000/svg" viewBox="0 0 100 100" ><defs  ><clipPath id="clip-path_1857_1667376298773" ><rect x="0" y="0" width="100" height="100" rx="10" ry="10" fill="none" ></rect></clipPath></defs><g clip-path="url(#clip-path_1857_1667376298773)" ><rect x="0" y="0" width="100" height="100" fill="#E57A2E" ></rect><polygon points="50,25 71.7,37.5 71.7,62.5 50,75 28.3,62.5 28.3,37.5" transformOrigin="center" transform="translate(-27.8 5.6)" style="fill:#fff;fill-opacity:0.5"></polygon><polygon points="50,25 71.7,37.5 71.7,62.5 50,75 28.3,62.5 28.3,37.5" transformOrigin="center" transform="translate(-38.9 -27.8)" style="fill:#fff;fill-opacity:0.5"></polygon><polygon points="50,25 71.7,37.5 71.7,62.5 50,75 28.3,62.5 28.3,37.5" transformOrigin="center" transform="translate(-38.9 -16.7)" style="fill:#fff;fill-opacity:0.5"></polygon><polygon points="50,25 71.7,37.5 71.7,62.5 50,75 28.3,62.5 28.3,37.5" transformOrigin="center" transform="translate(16.7 38.9)" style="fill:#fff;fill-opacity:0.5"></polygon><polygon points="50,25 71.7,37.5 71.7,62.5 50,75 28.3,62.5 28.3,37.5" transformOrigin="center" transform="translate(-27.8 5.6)" style="fill:#fff;fill-opacity:0.5"></polygon><polygon points="50,25 71.7,37.5 71.7,62.5 50,75 28.3,62.5 28.3,37.5" transformOrigin="center" transform="translate(5.6 -16.7)" style="fill:#fff;fill-opacity:0.5"></polygon><polygon points="50,25 71.7,37.5 71.7,62.5 50,75 28.3,62.5 28.3,37.5" transformOrigin="center" transform="translate(16.7 -38.9)" style="fill:#fff;fill-opacity:0.5"></polygon><polygon points="50,25 71.7,37.5 71.7,62.5 50,75 28.3,62.5 28.3,37.5" transformOrigin="center" transform="translate(27.8 38.9)" style="fill:#fff;fill-opacity:0.5"></polygon></g></svg>